<svg id="Слой_1" data-name="Слой 1" fill="#e31837" xmlns="http://www.w3.org/2000/svg" viewBox="0 0 787 244.68"><line class="cls-1" x1="246.56" y1="76.58" x2="246.56" y2="76.15"/><polygon class="cls-2" points="73.81 240.67 48.13 204.84 134.78 116.59 135.85 40.65 175.42 40.65 175.42 68.46 239.6 0 421.04 167 360.07 167 245.49 63.65 110.17 206.31 133.71 240.67 73.81 240.67"/><polygon class="cls-2" points="163.66 166.33 246.56 77.55 340.15 166.33 163.66 166.33"/><text x="-31" y="-32.53"/><line class="cls-3" x1="177.56" y1="185.85" x2="177.16" y2="185.85"/><line class="cls-3" x1="163.53" y1="230.78" x2="163.12" y2="230.78"/><line class="cls-3" x1="192.4" y1="230.78" x2="192" y2="230.78"/><line class="cls-3" x1="288.68" y1="185.85" x2="288.27" y2="185.85"/><line class="cls-3" x1="271.83" y1="236.39" x2="271.43" y2="236.39"/><polygon class="cls-2" points="280.25 196.32 271.66 185.85 232.72 185.85 229.98 196.28 245.55 196.29 235.06 235.86 250.03 229.71 258.46 196.3 280.25 196.32"/><path class="cls-2" d="M373.83,218.38l-12.07,44.93h45.72l12.58-44.93Zm2.9,35.5L384,228.21h20.56L397.79,254Z" transform="translate(-31 -32.53)"/><polygon class="cls-2" points="507.09 185.85 469.85 200.83 461.46 230.78 474.89 230.78 481.07 205.75 504.25 196.53 495.23 230.73 506.98 236.39 519.85 185.85 507.09 185.85"/><polygon class="cls-2" points="333.96 193.41 335.61 185.75 300.54 185.85 287.74 185.85 274.07 236.39 289.58 230.78 297.99 196.31 320.46 196.29 319.12 202.07 302.18 210.46 299.5 221.95 330.79 207.25 333.96 193.41"/><polygon class="cls-2" points="433.55 230.25 445.71 182.64 431.07 189.26 422.77 221.28 400.99 221.28 408.41 192.27 393.57 198.29 385.51 230.58 398.62 230.58 398.63 230.51 433.55 230.51 433.55 230.25"/><polygon class="cls-2" points="224.19 185.85 190.37 185.85 177.56 185.85 166.3 230.78 195.01 230.84 204.84 221.35 181.31 221.28 187.85 196.18 210.69 195.9 208.85 203.24 221.09 203.3 223.01 195.75 223.02 195.75 225.3 185.85 224.19 185.85"/><polygon class="cls-2" points="707.11 185.85 659.45 185.85 648.18 230.78 661.28 230.78 674.28 230.78 685.65 220.35 663.72 220.35 669.73 196.18 692.4 196.22 690.73 203.24 703.17 203.1 704.89 195.75 704.9 195.75 705.23 194.31 707.11 185.85"/><polygon class="cls-2" points="550.97 207.34 548.07 201.22 525.85 211.74 525.86 211.76 518.76 215.12 514.47 230.78 526.51 236.39 531.91 216.35 550.97 207.34"/><polygon class="cls-2" points="540.14 185.85 526.77 185.85 519.92 210.89 535.36 203.59 540.14 185.85"/><polygon class="cls-2" points="581.18 230.78 571.01 220.4 555.22 220.35 561.34 196.28 582.04 196.28 575.38 220.55 585.14 230.51 597.64 185.85 551.41 185.85 539.34 230.78 572.77 230.78 581.18 230.78"/><line class="cls-4" x1="622.27" y1="207.11" x2="618.63" y2="207.11"/><polygon class="cls-2" points="652.19 181.84 636.18 187.46 632.03 201.5 619.89 206.71 612.86 206.71 618.63 185.85 603.82 191.47 591.79 235.86 606.2 230.78 611.75 210.72 619.62 210.72 628.64 217.31 625.15 230.71 639.92 230.78 643.67 214.33 635.91 206.98 646.88 203.5 652.19 181.84"/><polygon class="cls-2" points="432.14 183.98 410.55 191.94 413.15 183.45 435.08 174.89 432.14 183.98"/><rect class="cls-2" y="240.67" width="787" height="4.01"/></svg>
