<svg id="Шар_1" data-name="Шар 1" xmlns="http://www.w3.org/2000/svg" viewBox="0 0 234.67 43.67"><defs><style>.cls-1{fill:#e72b73;}.cls-2{fill:#fff;}</style></defs><title>full_logo_white</title><path class="cls-1" d="M16.42,26.72,16,26.13a1.37,1.37,0,0,0-.55-.45,1.4,1.4,0,0,0-.55-.12,1.6,1.6,0,0,0-1.06.47,8.55,8.55,0,0,1-.93.76,8.18,8.18,0,0,1-1.08.62,6.65,6.65,0,0,1-1.16.41A5.15,5.15,0,0,1,9.46,28a5.63,5.63,0,0,1-2.34-.48,5.57,5.57,0,0,1-1.84-1.33,6.16,6.16,0,0,1-1.22-2,6.76,6.76,0,0,1,0-4.85,6.16,6.16,0,0,1,1.22-2A5.69,5.69,0,0,1,7.12,16a5.63,5.63,0,0,1,2.34-.48,5.55,5.55,0,0,1,2.29.47,6.5,6.5,0,0,1,1.91,1.29,1.48,1.48,0,0,0,1.05.5,1.22,1.22,0,0,0,.77-.28,3.46,3.46,0,0,0,.39-.42l.33-.42a1.35,1.35,0,0,0,.36-.92,1.38,1.38,0,0,0-.37-.94,2.76,2.76,0,0,0-.44-.42,10.17,10.17,0,0,0-2.87-1.77A9.13,9.13,0,0,0,9.43,12a9.15,9.15,0,0,0-6.76,2.87A9.53,9.53,0,0,0,.7,18a10.61,10.61,0,0,0,0,7.58,9.7,9.7,0,0,0,2,3.1,9.11,9.11,0,0,0,6.76,2.88,8.62,8.62,0,0,0,3.62-.75,10.34,10.34,0,0,0,3-2,3.86,3.86,0,0,0,.42-.45,1.11,1.11,0,0,0,.29-.8A1.38,1.38,0,0,0,16.42,26.72Z"/><path class="cls-1" d="M52.9,22A8.58,8.58,0,0,0,51,20.67a14.9,14.9,0,0,0-2.45-.91L48,19.62c-.32-.09-.66-.2-1-.34a4.29,4.29,0,0,1-.9-.48,2.21,2.21,0,0,1-.61-.61,1.15,1.15,0,0,1-.19-.67,1.87,1.87,0,0,1,.18-.83A1.9,1.9,0,0,1,46,16a2.47,2.47,0,0,1,.82-.44,3.67,3.67,0,0,1,1.13-.17,3.26,3.26,0,0,1,1.74.46,3.71,3.71,0,0,1,1.24,1.22l.07,0-.05.1.1.14.26.34a1.14,1.14,0,0,0,.89.39,1.56,1.56,0,0,0,.84-.28l.62-.37a1.4,1.4,0,0,0,.66-1.15,1.78,1.78,0,0,0-.2-.75,6.64,6.64,0,0,0-2.63-2.65,7.86,7.86,0,0,0-6-.46,5.53,5.53,0,0,0-1.95,1.13,5.27,5.27,0,0,0-1.27,1.78,5.57,5.57,0,0,0-.46,2.26,4.17,4.17,0,0,0,.55,2.08,5.82,5.82,0,0,0,1.32,1.58,8.15,8.15,0,0,0,1.78,1.16,11.74,11.74,0,0,0,2,.75,14.22,14.22,0,0,1,1.42.43,6.5,6.5,0,0,1,1.24.61,3,3,0,0,1,.81.78,1.36,1.36,0,0,1,.26.85,1.6,1.6,0,0,1-.26.93,2.6,2.6,0,0,1-.78.73,4.08,4.08,0,0,1-1.11.47,4.85,4.85,0,0,1-1.15.15,3.39,3.39,0,0,1-.83-.12,4,4,0,0,1-.95-.38,3.53,3.53,0,0,1-.84-.61,2.56,2.56,0,0,1-.58-.77L44.5,26a1.65,1.65,0,0,0-.38-.48,1.27,1.27,0,0,0-.82-.3,1.58,1.58,0,0,0-.59.13l-.67.3a1.41,1.41,0,0,0-.63.53,1.31,1.31,0,0,0-.26.75,1.23,1.23,0,0,0,.09.47,5.42,5.42,0,0,0,1,1.83,5.87,5.87,0,0,0,1.56,1.29,7.26,7.26,0,0,0,1.91.76,8.56,8.56,0,0,0,2.1.25,8.79,8.79,0,0,0,2.53-.36,6.64,6.64,0,0,0,2.18-1.08,5.44,5.44,0,0,0,1.55-1.82,5.23,5.23,0,0,0,.58-2.49,4.72,4.72,0,0,0-.46-2.08A5.52,5.52,0,0,0,52.9,22Z"/><path class="cls-1" d="M66.56,12.37H64.33V8a1.72,1.72,0,0,0-.23-.92,1.24,1.24,0,0,0-1.16-.61h-.11l-.89.12A1.37,1.37,0,0,0,60.69,8v4.37H59.07a1.59,1.59,0,0,0-1,.32,1.38,1.38,0,0,0-.45,1.11v.64a1.34,1.34,0,0,0,.45,1.1,1.53,1.53,0,0,0,1,.33h1.62V26.33a7,7,0,0,0,.38,2.55,3.41,3.41,0,0,0,1.14,1.6,3.74,3.74,0,0,0,1.7.69,12.46,12.46,0,0,0,1.78.12h.52a1.93,1.93,0,0,0,1-.25,1.34,1.34,0,0,0,.62-1.23v-.58a1.41,1.41,0,0,0-.53-1.15,1.62,1.62,0,0,0-1-.33h-.57a7,7,0,0,1-.87-.12.38.38,0,0,1-.25-.12.88.88,0,0,1-.18-.4,6.14,6.14,0,0,1-.1-1.26v-10h2.23a1.55,1.55,0,0,0,1-.35A1.39,1.39,0,0,0,68,14.41v-.58a1.39,1.39,0,0,0-.46-1.11A1.47,1.47,0,0,0,66.56,12.37Z"/><path class="cls-1" d="M87.21,14.88a9.88,9.88,0,0,0-3.1-2.08,9.7,9.7,0,0,0-10.69,2.09A10.05,10.05,0,0,0,71.34,18a9.88,9.88,0,0,0,0,7.6,9.89,9.89,0,0,0,2.08,3.09,9.59,9.59,0,0,0,3.09,2.09,9.48,9.48,0,0,0,3.79.77,9.61,9.61,0,0,0,3.81-.77,9.72,9.72,0,0,0,5.19-5.18,9.88,9.88,0,0,0,0-7.6A10,10,0,0,0,87.21,14.88ZM80.34,28a6,6,0,0,1-2.41-.48,6.21,6.21,0,0,1-2-1.35,6.49,6.49,0,0,1-1.35-2,5.83,5.83,0,0,1-.5-2.4,6,6,0,0,1,.5-2.42,6.4,6.4,0,0,1,1.34-2,6.73,6.73,0,0,1,2-1.35,6.15,6.15,0,0,1,4.81,0,6.6,6.6,0,0,1,2,1.35,6.26,6.26,0,0,1,1.35,2,6,6,0,0,1,.49,2.42,5.82,5.82,0,0,1-.49,2.4,6.49,6.49,0,0,1-1.35,2,6.14,6.14,0,0,1-2,1.34A6,6,0,0,1,80.34,28Z"/><path class="cls-2" d="M105.92,13.31a4.55,4.55,0,0,0-1.14-.62,8,8,0,0,0-1.34-.41,6.16,6.16,0,0,0-1.34-.16,6.36,6.36,0,0,0-1.77.24A5.89,5.89,0,0,0,98.8,13c-.19.13-.38.27-.56.42a1.52,1.52,0,0,0-1.59-1.09h-.38A1.49,1.49,0,0,0,94.7,14V29.7a1.35,1.35,0,0,0,1.46,1.43h.72a1.35,1.35,0,0,0,1.45-1.43l0-9.46a4.91,4.91,0,0,1,.3-1.7,4.85,4.85,0,0,1,.8-1.47,3.88,3.88,0,0,1,1.15-1,2.92,2.92,0,0,1,1.41-.35,2.82,2.82,0,0,1,1.06.21,6.94,6.94,0,0,1,1,.5,1.23,1.23,0,0,0,.53.21h.32a1.16,1.16,0,0,0,.79-.34,2.64,2.64,0,0,0,.43-.49,3.11,3.11,0,0,0,.32-.56,1.71,1.71,0,0,0,.18-.74A1.5,1.5,0,0,0,105.92,13.31Z"/><path class="cls-2" d="M109.39,21.88a9.73,9.73,0,0,0,.76,3.8,9.81,9.81,0,0,0,5.19,5.18,9.78,9.78,0,0,0,3.81.76,9.52,9.52,0,0,0,3.8-.77,9.63,9.63,0,0,0,2.29-1.38v.32a1.35,1.35,0,0,0,1.45,1.43h.72a1.35,1.35,0,0,0,1.46-1.43V21.88a9.6,9.6,0,0,0-.76-3.81A9.78,9.78,0,0,0,123,12.88a9.91,9.91,0,0,0-7.61,0,9.79,9.79,0,0,0-5.19,5.19A9.78,9.78,0,0,0,109.39,21.88Zm3.49,0a6,6,0,0,1,.49-2.42,6.59,6.59,0,0,1,1.35-2,6.4,6.4,0,0,1,2-1.34,6,6,0,0,1,4.81,0,6.4,6.4,0,0,1,2,1.34,6.56,6.56,0,0,1,1.34,2,5.71,5.71,0,0,1,.41,1.41v2a5.76,5.76,0,0,1-.4,1.36,6.78,6.78,0,0,1-1.35,2,6.47,6.47,0,0,1-2,1.34,6.29,6.29,0,0,1-4.82,0,6.4,6.4,0,0,1-2-1.34,6.67,6.67,0,0,1-1.35-2A5.86,5.86,0,0,1,112.88,21.88Z"/><path class="cls-2" d="M164,21.88a9.56,9.56,0,0,0,.77,3.8,9.78,9.78,0,0,0,2.08,3.09,10,10,0,0,0,3.11,2.09,9.69,9.69,0,0,0,3.8.76,9.52,9.52,0,0,0,3.8-.77,9.69,9.69,0,0,0,2.3-1.38v.32a1.35,1.35,0,0,0,1.44,1.43H182a1.36,1.36,0,0,0,1.47-1.43V21.88a9.61,9.61,0,0,0-.77-3.81,9.85,9.85,0,0,0-2.07-3.1,10,10,0,0,0-3.09-2.09,9.88,9.88,0,0,0-7.6,0A10,10,0,0,0,166.82,15a9.71,9.71,0,0,0-2.08,3.1A9.61,9.61,0,0,0,164,21.88Zm3.49,0a6.12,6.12,0,0,1,.49-2.42,6.78,6.78,0,0,1,1.35-2,6.4,6.4,0,0,1,2-1.34,6,6,0,0,1,2.41-.5,5.86,5.86,0,0,1,2.4.5,6.4,6.4,0,0,1,2,1.34,6.59,6.59,0,0,1,1.35,2,6.16,6.16,0,0,1,.4,1.41v2a5.76,5.76,0,0,1-.4,1.36,6.59,6.59,0,0,1-1.35,2,6.47,6.47,0,0,1-2,1.34,6.29,6.29,0,0,1-4.82,0,6.4,6.4,0,0,1-2-1.34,6.86,6.86,0,0,1-1.35-2A6,6,0,0,1,167.46,21.88Z"/><path class="cls-2" d="M159.45,18.67a7.54,7.54,0,0,0-.75-2.51,7.14,7.14,0,0,0-1.53-2A7.32,7.32,0,0,0,155,12.78a7.1,7.1,0,0,0-2.62-.49,6.8,6.8,0,0,0-2,.3,6.45,6.45,0,0,0-1.75.85,6.67,6.67,0,0,0-1.4,1.31l-.3.4-.3-.38a6.66,6.66,0,0,0-1.46-1.29,6.93,6.93,0,0,0-1.8-.85,7.27,7.27,0,0,0-2.11-.31l-.3,0h-.1a6.9,6.9,0,0,0-2.62.49,7.12,7.12,0,0,0-2.15,1.35,7.19,7.19,0,0,0-1.53,2,7.54,7.54,0,0,0-.75,2.51c0,.47-.06.93-.08,1.39l0,0v9.75s0,.07,0,.1a1.4,1.4,0,0,0,.06.32,1.27,1.27,0,0,0,.94.94,2.25,2.25,0,0,0,.4.06h.77a1.33,1.33,0,0,0,1.34-.85,1.61,1.61,0,0,0,.12-.63V19.7a4.62,4.62,0,0,1,.28-1.48,3.81,3.81,0,0,1,2-2,3.82,3.82,0,0,1,1.47-.29,3.68,3.68,0,0,1,1.43.28,3.76,3.76,0,0,1,1.16.8,3.83,3.83,0,0,1,.8,1.19,3.92,3.92,0,0,1,.31,1.45v10.2a1.38,1.38,0,0,0,1.46,1.48h.7a1.39,1.39,0,0,0,1.47-1.5V20.54a6.85,6.85,0,0,1,0-.79c0-.27.08-.54.13-.8a4,4,0,0,1,.47-1.21,3.75,3.75,0,0,1,.84-1,4,4,0,0,1,1.13-.64,3.73,3.73,0,0,1,1.29-.23,3.55,3.55,0,0,1,1.43.29,3.49,3.49,0,0,1,1.86,2,4.44,4.44,0,0,1,.29,1.5V29.82a1.4,1.4,0,0,0,1.52,1.48h.63a1.53,1.53,0,0,0,1-.38,1.45,1.45,0,0,0,.46-1.12V20.6A18.13,18.13,0,0,0,159.45,18.67Z"/><path class="cls-1" d="M36,12.73a1.47,1.47,0,0,0-1-.4H34.3a1.39,1.39,0,0,0-1.13.47,1.58,1.58,0,0,0-.32,1v9.73a4.63,4.63,0,0,1-.35,1.75,4.36,4.36,0,0,1-.92,1.41,4.18,4.18,0,0,1-1.41.93,4.68,4.68,0,0,1-1.82.34h0a4.92,4.92,0,0,1-1.79-.34,4.23,4.23,0,0,1-2.33-2.34,4.87,4.87,0,0,1-.35-1.75V13.82a1.57,1.57,0,0,0-.32-1,1.35,1.35,0,0,0-1.13-.48h-.61a1.45,1.45,0,0,0-1.48,1.5v9.65a8.33,8.33,0,0,0,.59,3.12,8.1,8.1,0,0,0,1.62,2.55,7.67,7.67,0,0,0,5.57,2.34h.5a7.62,7.62,0,0,0,5.56-2.34,8.08,8.08,0,0,0,1.63-2.54,8.38,8.38,0,0,0,.59-3.13V13.83A1.45,1.45,0,0,0,36,12.73Z"/><path class="cls-1" d="M198.51,27.38a2.68,2.68,0,0,0,1.48.4h.87a2.39,2.39,0,0,0,1.61-.47,1.22,1.22,0,0,0,.41-.78h0V10.25h0a1.27,1.27,0,0,0-.41-.78A2.4,2.4,0,0,0,200.86,9H200a2.76,2.76,0,0,0-1.48.39,1.3,1.3,0,0,0-.63,1.08V26.31A1.3,1.3,0,0,0,198.51,27.38Z"/><path class="cls-1" d="M209.37,20.26a2.66,2.66,0,0,0,.4-1.48v-.87a2.42,2.42,0,0,0-.46-1.61,1.21,1.21,0,0,0-.78-.4H192.24a1.21,1.21,0,0,0-.78.4,2.42,2.42,0,0,0-.46,1.61v.87a2.66,2.66,0,0,0,.4,1.48,1.25,1.25,0,0,0,1.07.63H208.3A1.25,1.25,0,0,0,209.37,20.26Z"/><path class="cls-1" d="M214.41,18.37a2.66,2.66,0,0,0,1.48.4h.87a2.42,2.42,0,0,0,1.61-.46,1.27,1.27,0,0,0,.41-.78h0V1.24h0a1.27,1.27,0,0,0-.41-.78A2.42,2.42,0,0,0,216.76,0h-.87a2.66,2.66,0,0,0-1.48.4,1.25,1.25,0,0,0-.63,1.07V17.3A1.25,1.25,0,0,0,214.41,18.37Z"/><path class="cls-1" d="M225.27,11.26a2.7,2.7,0,0,0,.4-1.48V8.9a2.36,2.36,0,0,0-.47-1.6,1.22,1.22,0,0,0-.78-.41H208.14a1.22,1.22,0,0,0-.78.41,2.37,2.37,0,0,0-.46,1.6v.88a2.7,2.7,0,0,0,.39,1.48,1.29,1.29,0,0,0,1.08.62H224.2A1.29,1.29,0,0,0,225.27,11.26Z"/><path class="cls-2" d="M207.52,43.27a2.66,2.66,0,0,0,1.48.4h.87a2.3,2.3,0,0,0,1.6-.47,1.14,1.14,0,0,0,.41-.77h0V26.14h0a1.18,1.18,0,0,0-.41-.78,2.37,2.37,0,0,0-1.6-.46H209a2.74,2.74,0,0,0-1.48.39,1.28,1.28,0,0,0-.63,1.08V42.2A1.27,1.27,0,0,0,207.52,43.27Z"/><path class="cls-2" d="M218.38,36.15a2.74,2.74,0,0,0,.39-1.48V33.8a2.37,2.37,0,0,0-.46-1.6,1.18,1.18,0,0,0-.78-.41H201.24a1.14,1.14,0,0,0-.77.41,2.3,2.3,0,0,0-.47,1.6v.87a2.66,2.66,0,0,0,.4,1.48,1.27,1.27,0,0,0,1.07.63H217.3A1.28,1.28,0,0,0,218.38,36.15Z"/><path class="cls-2" d="M223.41,34.26a2.66,2.66,0,0,0,1.48.4h.87a2.42,2.42,0,0,0,1.61-.46,1.27,1.27,0,0,0,.41-.78h0V17.13h0a1.27,1.27,0,0,0-.41-.78,2.42,2.42,0,0,0-1.61-.46h-.87a2.66,2.66,0,0,0-1.48.4,1.25,1.25,0,0,0-.63,1.07V33.19A1.25,1.25,0,0,0,223.41,34.26Z"/><path class="cls-2" d="M234.27,27.15a2.68,2.68,0,0,0,.4-1.48V24.8a2.34,2.34,0,0,0-.47-1.61,1.22,1.22,0,0,0-.77-.41H217.14a1.27,1.27,0,0,0-.78.41,2.4,2.4,0,0,0-.46,1.61v.87a2.76,2.76,0,0,0,.39,1.48,1.3,1.3,0,0,0,1.08.63H233.2A1.3,1.3,0,0,0,234.27,27.15Z"/></svg>