<svg xmlns="http://www.w3.org/2000/svg" viewBox="0 0 43.66 43.67"><defs><style>.cls-1{fill:#e72b73;}.cls-2{fill:#fff;}</style></defs><title>simple_logo_white</title><g id="Шар_1_копія_2" data-name="Шар 1 копія 2"><path class="cls-1" d="M7.55,27.39a2.66,2.66,0,0,0,1.48.4H9.9a2.41,2.41,0,0,0,1.61-.47,1.22,1.22,0,0,0,.41-.78h0V10.26h0a1.27,1.27,0,0,0-.41-.78A2.42,2.42,0,0,0,9.9,9H9a2.74,2.74,0,0,0-1.48.39,1.28,1.28,0,0,0-.63,1.08V26.32A1.27,1.27,0,0,0,7.55,27.39Z"/><path class="cls-1" d="M18.41,20.27a2.65,2.65,0,0,0,.39-1.48v-.87a2.42,2.42,0,0,0-.46-1.61,1.21,1.21,0,0,0-.78-.4H1.28a1.21,1.21,0,0,0-.78.4A2.42,2.42,0,0,0,0,17.92v.87a2.65,2.65,0,0,0,.39,1.48,1.28,1.28,0,0,0,1.08.63H17.33A1.28,1.28,0,0,0,18.41,20.27Z"/><path class="cls-1" d="M23.45,18.38a2.64,2.64,0,0,0,1.47.4h.88a2.37,2.37,0,0,0,1.6-.46,1.22,1.22,0,0,0,.41-.78h0V1.25h0A1.22,1.22,0,0,0,27.4.47,2.37,2.37,0,0,0,25.8,0h-.88a2.64,2.64,0,0,0-1.47.4,1.25,1.25,0,0,0-.63,1.07V17.31A1.25,1.25,0,0,0,23.45,18.38Z"/><path class="cls-1" d="M34.3,11.27a2.68,2.68,0,0,0,.4-1.48V8.92a2.38,2.38,0,0,0-.46-1.61,1.22,1.22,0,0,0-.78-.41H17.17a1.22,1.22,0,0,0-.78.41,2.38,2.38,0,0,0-.46,1.61v.87a2.68,2.68,0,0,0,.4,1.48,1.26,1.26,0,0,0,1.07.62H33.23A1.26,1.26,0,0,0,34.3,11.27Z"/><path class="cls-2" d="M16.55,43.28a2.66,2.66,0,0,0,1.48.4h.87a2.36,2.36,0,0,0,1.61-.47,1.22,1.22,0,0,0,.41-.77h0V26.15h0a1.27,1.27,0,0,0-.41-.78,2.42,2.42,0,0,0-1.61-.46H18a2.74,2.74,0,0,0-1.48.39,1.28,1.28,0,0,0-.63,1.08V42.21A1.27,1.27,0,0,0,16.55,43.28Z"/><path class="cls-2" d="M27.41,36.16a2.66,2.66,0,0,0,.4-1.48v-.87a2.36,2.36,0,0,0-.47-1.6,1.16,1.16,0,0,0-.78-.41H10.28a1.18,1.18,0,0,0-.78.41A2.37,2.37,0,0,0,9,33.81v.87a2.65,2.65,0,0,0,.39,1.48,1.28,1.28,0,0,0,1.08.63H26.34A1.27,1.27,0,0,0,27.41,36.16Z"/><path class="cls-2" d="M32.45,34.27a2.66,2.66,0,0,0,1.48.4h.87a2.42,2.42,0,0,0,1.61-.46,1.21,1.21,0,0,0,.4-.78h0V17.14h0a1.21,1.21,0,0,0-.4-.78,2.42,2.42,0,0,0-1.61-.46h-.87a2.66,2.66,0,0,0-1.48.4,1.25,1.25,0,0,0-.63,1.07V33.2A1.25,1.25,0,0,0,32.45,34.27Z"/><path class="cls-2" d="M43.31,27.16a2.76,2.76,0,0,0,.39-1.48v-.87a2.4,2.4,0,0,0-.46-1.61,1.27,1.27,0,0,0-.78-.41H26.18a1.22,1.22,0,0,0-.78.41,2.39,2.39,0,0,0-.47,1.61v.87a2.68,2.68,0,0,0,.4,1.48,1.3,1.3,0,0,0,1.07.63H42.23A1.3,1.3,0,0,0,43.31,27.16Z"/></g></svg>