<svg xmlns="http://www.w3.org/2000/svg" viewBox="0 0 234.67 43.67"><defs><style>.cls-1{fill:#e72b73;}.cls-2{fill:#282a3c;}</style></defs><title>text_logo_black</title><g id="Шар_1_копія" data-name="Шар 1 копія"><path class="cls-1" d="M16.75,26.72l-.45-.59a1.31,1.31,0,0,0-.55-.45,1.37,1.37,0,0,0-.55-.12,1.62,1.62,0,0,0-1.06.47,7,7,0,0,1-.93.76,8.18,8.18,0,0,1-1.08.62,6.85,6.85,0,0,1-1.15.41A5.21,5.21,0,0,1,9.8,28a5.54,5.54,0,0,1-4.18-1.81,6.18,6.18,0,0,1-1.23-2,6.9,6.9,0,0,1,0-4.85,6.34,6.34,0,0,1,1.22-2A5.84,5.84,0,0,1,7.46,16a5.6,5.6,0,0,1,2.34-.48,5.62,5.62,0,0,1,2.29.47A6.45,6.45,0,0,1,14,17.3a1.5,1.5,0,0,0,1.06.5,1.19,1.19,0,0,0,.76-.28,2.81,2.81,0,0,0,.39-.42l.33-.42a1.35,1.35,0,0,0,.36-.92,1.38,1.38,0,0,0-.37-.94,2.76,2.76,0,0,0-.44-.42,10,10,0,0,0-2.87-1.77A9.13,9.13,0,0,0,9.76,12,9.19,9.19,0,0,0,3,14.85,9.51,9.51,0,0,0,1,18a10.47,10.47,0,0,0,0,7.58,9.67,9.67,0,0,0,2,3.1,9.15,9.15,0,0,0,6.76,2.88,8.7,8.7,0,0,0,3.63-.75,10.62,10.62,0,0,0,3-2,4.66,4.66,0,0,0,.41-.45,1.11,1.11,0,0,0,.29-.8A1.32,1.32,0,0,0,16.75,26.72Z"/><path class="cls-1" d="M53.24,22a8.43,8.43,0,0,0-1.93-1.29,14.56,14.56,0,0,0-2.45-.91l-.52-.14a10.3,10.3,0,0,1-1-.34,4.37,4.37,0,0,1-.91-.48,2.36,2.36,0,0,1-.61-.61,1.23,1.23,0,0,1-.19-.67,1.87,1.87,0,0,1,.18-.83,2,2,0,0,1,.5-.66,2.52,2.52,0,0,1,.83-.44,3.56,3.56,0,0,1,1.12-.17,3.23,3.23,0,0,1,1.74.46,3.62,3.62,0,0,1,1.24,1.22l.08,0-.06.1.1.14c.11.14.2.25.26.34a1.18,1.18,0,0,0,.9.39,1.55,1.55,0,0,0,.83-.28l.62-.37a1.38,1.38,0,0,0,.5-.52,1.34,1.34,0,0,0,.16-.63,1.9,1.9,0,0,0-.19-.75,6.66,6.66,0,0,0-2.64-2.65A7.44,7.44,0,0,0,48.23,12a7.36,7.36,0,0,0-2.45.39,5.57,5.57,0,0,0-2,1.13,5.27,5.27,0,0,0-1.27,1.78,5.56,5.56,0,0,0-.45,2.26,4.16,4.16,0,0,0,.54,2.08A5.82,5.82,0,0,0,44,21.2a8.15,8.15,0,0,0,1.78,1.16,11.53,11.53,0,0,0,2,.75c.45.11.93.26,1.41.43a6.22,6.22,0,0,1,1.24.61,3.06,3.06,0,0,1,.82.78,1.42,1.42,0,0,1,.25.85,1.53,1.53,0,0,1-.26.93,2.56,2.56,0,0,1-.77.73,4.36,4.36,0,0,1-1.11.47,4.91,4.91,0,0,1-1.15.15,3.39,3.39,0,0,1-.84-.12,4,4,0,0,1-.94-.38,3.59,3.59,0,0,1-.85-.61,2.74,2.74,0,0,1-.58-.77l-.1-.21a1.86,1.86,0,0,0-.39-.48,1.27,1.27,0,0,0-.82-.3,1.62,1.62,0,0,0-.59.13l-.67.3a1.41,1.41,0,0,0-.63.53,1.3,1.3,0,0,0-.25.75,1.06,1.06,0,0,0,.09.47,5.23,5.23,0,0,0,1,1.83,5.76,5.76,0,0,0,1.57,1.29,7.19,7.19,0,0,0,1.9.76,8.59,8.59,0,0,0,2.11.25,8.84,8.84,0,0,0,2.53-.36,6.74,6.74,0,0,0,2.18-1.08,5.52,5.52,0,0,0,1.54-1.82A5.23,5.23,0,0,0,55,25.75a4.72,4.72,0,0,0-.46-2.08A5.64,5.64,0,0,0,53.24,22Z"/><path class="cls-1" d="M66.89,12.37H64.67V8a1.82,1.82,0,0,0-.23-.92,1.27,1.27,0,0,0-1.17-.61h-.11l-.88.12A1.38,1.38,0,0,0,61,8v4.37H59.4a1.56,1.56,0,0,0-1,.32,1.38,1.38,0,0,0-.46,1.11v.64a1.37,1.37,0,0,0,.45,1.1,1.55,1.55,0,0,0,1,.33H61V26.33a7,7,0,0,0,.38,2.55,3.49,3.49,0,0,0,1.15,1.6,3.7,3.7,0,0,0,1.69.69,12.46,12.46,0,0,0,1.78.12h.53a1.89,1.89,0,0,0,1-.25,1.34,1.34,0,0,0,.63-1.23v-.58a1.39,1.39,0,0,0-.54-1.15,1.6,1.6,0,0,0-1-.33h-.57a7.63,7.63,0,0,1-.87-.12.41.41,0,0,1-.25-.12.81.81,0,0,1-.17-.4,5.46,5.46,0,0,1-.1-1.26v-10h2.22a1.55,1.55,0,0,0,1-.35,1.39,1.39,0,0,0,.46-1.11v-.58a1.36,1.36,0,0,0-.47-1.11A1.47,1.47,0,0,0,66.89,12.37Z"/><path class="cls-1" d="M87.55,14.88a9.93,9.93,0,0,0-3.11-2.08,9.76,9.76,0,0,0-7.6,0A9.69,9.69,0,0,0,71.68,18a9.76,9.76,0,0,0,0,7.6,9.7,9.7,0,0,0,2.07,3.09,9.81,9.81,0,0,0,3.09,2.09,9.76,9.76,0,0,0,7.6,0,9.93,9.93,0,0,0,3.11-2.08,9.71,9.71,0,0,0,2.08-3.1,9.76,9.76,0,0,0,0-7.6A9.76,9.76,0,0,0,87.55,14.88ZM80.67,28a6.1,6.1,0,0,1-2.41-.48,6.33,6.33,0,0,1-2-1.35,6.67,6.67,0,0,1-1.35-2,5.82,5.82,0,0,1-.49-2.4,6,6,0,0,1,.49-2.42,6.43,6.43,0,0,1,1.35-2,6.68,6.68,0,0,1,2-1.35,6.15,6.15,0,0,1,4.81,0,6.65,6.65,0,0,1,2,1.35,6.4,6.4,0,0,1,1.34,2,6.11,6.11,0,0,1,0,4.82,6.7,6.7,0,0,1-1.36,2A6.19,6.19,0,0,1,80.67,28Z"/><path class="cls-2" d="M106.25,13.31a4.48,4.48,0,0,0-1.13-.62,8.15,8.15,0,0,0-1.35-.41,6.09,6.09,0,0,0-1.34-.16,6.36,6.36,0,0,0-1.77.24,5.68,5.68,0,0,0-1.52.68,4.81,4.81,0,0,0-.56.42A1.53,1.53,0,0,0,97,12.37H96.6A1.49,1.49,0,0,0,95,14V29.7a1.36,1.36,0,0,0,1.47,1.43h.71a1.35,1.35,0,0,0,1.45-1.43l0-9.46a4.91,4.91,0,0,1,.3-1.7,5.33,5.33,0,0,1,.8-1.47,3.8,3.8,0,0,1,1.16-1,2.89,2.89,0,0,1,1.41-.35,2.81,2.81,0,0,1,1,.21,6.47,6.47,0,0,1,1,.5,1.23,1.23,0,0,0,.53.21h.32a1.16,1.16,0,0,0,.79-.34,2.64,2.64,0,0,0,.43-.49,3.16,3.16,0,0,0,.33-.56,1.71,1.71,0,0,0,.18-.74A1.52,1.52,0,0,0,106.25,13.31Z"/><path class="cls-2" d="M109.72,21.88a9.56,9.56,0,0,0,.77,3.8,9.78,9.78,0,0,0,2.08,3.09,10,10,0,0,0,3.11,2.09,9.69,9.69,0,0,0,3.8.76,9.52,9.52,0,0,0,3.8-.77,9.69,9.69,0,0,0,2.3-1.38v.32A1.35,1.35,0,0,0,127,31.22h.72a1.36,1.36,0,0,0,1.47-1.43V21.88a9.61,9.61,0,0,0-.77-3.81,9.85,9.85,0,0,0-2.07-3.1,10,10,0,0,0-3.09-2.09,9.88,9.88,0,0,0-7.6,0A10,10,0,0,0,112.57,15a9.71,9.71,0,0,0-2.08,3.1A9.61,9.61,0,0,0,109.72,21.88Zm3.49,0a6.12,6.12,0,0,1,.49-2.42,6.78,6.78,0,0,1,1.35-2,6.4,6.4,0,0,1,2-1.34,6,6,0,0,1,2.41-.5,5.86,5.86,0,0,1,2.4.5,6.4,6.4,0,0,1,2,1.34,6.59,6.59,0,0,1,1.35,2,6.16,6.16,0,0,1,.4,1.41v2a5.76,5.76,0,0,1-.4,1.36,6.59,6.59,0,0,1-1.35,2,6.47,6.47,0,0,1-2,1.34,6.29,6.29,0,0,1-4.82,0,6.4,6.4,0,0,1-2-1.34,6.86,6.86,0,0,1-1.35-2A6,6,0,0,1,113.21,21.88Z"/><path class="cls-2" d="M164.31,21.88a9.55,9.55,0,0,0,.76,3.8,9.73,9.73,0,0,0,9,5.94,9.51,9.51,0,0,0,3.79-.77,9.69,9.69,0,0,0,2.3-1.38v.32a1.35,1.35,0,0,0,1.45,1.43h.71a1.36,1.36,0,0,0,1.47-1.43V21.88a9.61,9.61,0,0,0-.77-3.81,9.69,9.69,0,0,0-5.16-5.19,9.88,9.88,0,0,0-7.6,0,9.79,9.79,0,0,0-5.19,5.19A9.6,9.6,0,0,0,164.31,21.88Zm3.48,0a6,6,0,0,1,.5-2.42,6.21,6.21,0,0,1,3.34-3.34,6,6,0,0,1,4.81,0,6.64,6.64,0,0,1,2,1.34,6.56,6.56,0,0,1,1.34,2,5.71,5.71,0,0,1,.41,1.41v2a5.76,5.76,0,0,1-.4,1.36,6.32,6.32,0,0,1-3.33,3.34,6.06,6.06,0,0,1-2.41.48,6.17,6.17,0,0,1-2.41-.48,6.35,6.35,0,0,1-3.33-3.33A5.86,5.86,0,0,1,167.79,21.88Z"/><path class="cls-2" d="M159.78,18.67a7.32,7.32,0,0,0-.75-2.51,7,7,0,0,0-1.53-2,7.4,7.4,0,0,0-2.14-1.35,7.14,7.14,0,0,0-2.62-.49,6.75,6.75,0,0,0-2,.3,6.18,6.18,0,0,0-1.75.85,6.43,6.43,0,0,0-1.4,1.31,3.79,3.79,0,0,0-.3.4c-.1-.13-.2-.26-.31-.38a6.84,6.84,0,0,0-1.45-1.29,7.15,7.15,0,0,0-1.81-.85,7.27,7.27,0,0,0-2.11-.31l-.3,0h-.1a6.9,6.9,0,0,0-2.62.49,7.24,7.24,0,0,0-2.15,1.35,7.39,7.39,0,0,0-1.53,2,7.31,7.31,0,0,0-.74,2.51,13.1,13.1,0,0,0-.08,1.39l0,0v9.75a.3.3,0,0,0,0,.1,1.43,1.43,0,0,0,.05.32,1.28,1.28,0,0,0,.95.94,2,2,0,0,0,.39.06h.77a1.35,1.35,0,0,0,1.35-.85,1.81,1.81,0,0,0,.11-.63V19.7a4.38,4.38,0,0,1,.29-1.48,3.84,3.84,0,0,1,2-2,3.82,3.82,0,0,1,1.47-.29,3.68,3.68,0,0,1,1.43.28A3.76,3.76,0,0,1,144,17a3.83,3.83,0,0,1,.8,1.19,3.73,3.73,0,0,1,.31,1.45v10.2a1.38,1.38,0,0,0,1.46,1.48h.7a1.39,1.39,0,0,0,1.47-1.5V20.54a5.16,5.16,0,0,1,.05-.79,7,7,0,0,1,.13-.8,3.7,3.7,0,0,1,.46-1.21,3.75,3.75,0,0,1,.84-1,4,4,0,0,1,1.13-.64,3.78,3.78,0,0,1,1.3-.23A3.43,3.43,0,0,1,156,18.17a4.21,4.21,0,0,1,.29,1.5V29.82a1.41,1.41,0,0,0,1.52,1.48h.63a1.53,1.53,0,0,0,1-.38,1.45,1.45,0,0,0,.46-1.12V20.6A18.13,18.13,0,0,0,159.78,18.67Z"/><path class="cls-1" d="M36.29,12.73a1.5,1.5,0,0,0-1-.4h-.61a1.42,1.42,0,0,0-1.14.47,1.58,1.58,0,0,0-.31,1v9.73a4.83,4.83,0,0,1-.35,1.75,4.23,4.23,0,0,1-2.33,2.34,4.68,4.68,0,0,1-1.82.34h0a5,5,0,0,1-1.8-.34,4.26,4.26,0,0,1-1.4-.94,4.18,4.18,0,0,1-.93-1.4,4.87,4.87,0,0,1-.35-1.75V13.82a1.56,1.56,0,0,0-.31-1,1.39,1.39,0,0,0-1.14-.48h-.61a1.51,1.51,0,0,0-1,.41,1.46,1.46,0,0,0-.44,1.09v9.65a8.33,8.33,0,0,0,.59,3.12,8,8,0,0,0,1.63,2.55,7.4,7.4,0,0,0,2.46,1.71,7.6,7.6,0,0,0,3.1.63H29a7.6,7.6,0,0,0,3.1-.63,7.4,7.4,0,0,0,2.46-1.71,7.91,7.91,0,0,0,1.63-2.54,8.38,8.38,0,0,0,.59-3.13V13.83A1.49,1.49,0,0,0,36.29,12.73Z"/><path class="cls-1" d="M198.85,27.38a2.66,2.66,0,0,0,1.48.4h.87a2.41,2.41,0,0,0,1.61-.47,1.17,1.17,0,0,0,.4-.78h0V10.25h0a1.21,1.21,0,0,0-.4-.78A2.42,2.42,0,0,0,201.2,9h-.87a2.74,2.74,0,0,0-1.48.39,1.28,1.28,0,0,0-.63,1.08V26.31A1.27,1.27,0,0,0,198.85,27.38Z"/><path class="cls-1" d="M209.71,20.26a2.65,2.65,0,0,0,.39-1.48v-.87a2.42,2.42,0,0,0-.46-1.61,1.21,1.21,0,0,0-.78-.4H192.58a1.19,1.19,0,0,0-.78.4,2.41,2.41,0,0,0-.47,1.61v.87a2.66,2.66,0,0,0,.4,1.48,1.27,1.27,0,0,0,1.07.63h15.83A1.28,1.28,0,0,0,209.71,20.26Z"/><path class="cls-1" d="M214.74,18.37a2.68,2.68,0,0,0,1.48.4h.87a2.42,2.42,0,0,0,1.61-.46,1.27,1.27,0,0,0,.41-.78h0V1.24h0a1.27,1.27,0,0,0-.41-.78A2.42,2.42,0,0,0,217.09,0h-.87a2.68,2.68,0,0,0-1.48.4,1.27,1.27,0,0,0-.63,1.07V17.3A1.27,1.27,0,0,0,214.74,18.37Z"/><path class="cls-1" d="M225.6,11.26a2.7,2.7,0,0,0,.4-1.48V8.9a2.37,2.37,0,0,0-.46-1.6,1.22,1.22,0,0,0-.78-.41H208.47a1.22,1.22,0,0,0-.78.41,2.37,2.37,0,0,0-.46,1.6v.88a2.7,2.7,0,0,0,.4,1.48,1.26,1.26,0,0,0,1.07.62h15.83A1.26,1.26,0,0,0,225.6,11.26Z"/><path class="cls-2" d="M207.85,43.27a2.66,2.66,0,0,0,1.48.4h.87a2.36,2.36,0,0,0,1.61-.47,1.22,1.22,0,0,0,.41-.77h0V26.14h0a1.27,1.27,0,0,0-.41-.78,2.42,2.42,0,0,0-1.61-.46h-.87a2.74,2.74,0,0,0-1.48.39,1.28,1.28,0,0,0-.63,1.08V42.2A1.27,1.27,0,0,0,207.85,43.27Z"/><path class="cls-2" d="M218.71,36.15a2.65,2.65,0,0,0,.39-1.48V33.8a2.37,2.37,0,0,0-.46-1.6,1.18,1.18,0,0,0-.78-.41H201.58a1.18,1.18,0,0,0-.78.41,2.37,2.37,0,0,0-.46,1.6v.87a2.65,2.65,0,0,0,.39,1.48,1.28,1.28,0,0,0,1.08.63h15.82A1.28,1.28,0,0,0,218.71,36.15Z"/><path class="cls-2" d="M223.75,34.26a2.64,2.64,0,0,0,1.47.4h.88a2.37,2.37,0,0,0,1.6-.46,1.22,1.22,0,0,0,.41-.78h0V17.13h0a1.22,1.22,0,0,0-.41-.78,2.37,2.37,0,0,0-1.6-.46h-.88a2.64,2.64,0,0,0-1.47.4,1.25,1.25,0,0,0-.63,1.07V33.19A1.25,1.25,0,0,0,223.75,34.26Z"/><path class="cls-2" d="M234.6,27.15a2.68,2.68,0,0,0,.4-1.48V24.8a2.4,2.4,0,0,0-.46-1.61,1.27,1.27,0,0,0-.78-.41H217.47a1.27,1.27,0,0,0-.78.41,2.4,2.4,0,0,0-.46,1.61v.87a2.68,2.68,0,0,0,.4,1.48,1.27,1.27,0,0,0,1.07.63h15.83A1.27,1.27,0,0,0,234.6,27.15Z"/></g></svg>